# xmcd
#
# Track frame offsets: 
#        150
#        16335
#        33849
#        48945
#        65712
#        90424
#        115285
#        133206
#        148825
#
# Disc length: 2462 seconds
#
# Revision: 0
# Processed by: cddbd v1.5.2PL0 Copyright (c) Steve Scherf et al.
# Submitted via: ExactAudioCopy v0.95b3
#
DISCID=7b099c09
DTITLE=The Guess Who  - Flavours - 320K - 1975
DYEAR=1900
DGENRE=
TTITLE0=Dancin Fool
TTITLE1=Ho Down Time
TTITLE2=Nobody Knows His  Name
TTITLE3=Diggin' Yourself
TTITLE4=Seems Like I Can't Live Without You
TTITLE5=Dirty
TTITLE6=Eye
TTITLE7=Loves Me Like A Brother
TTITLE8=Long Gone
EXTD=
EXTT0=
EXTT1=
EXTT2=
EXTT3=
EXTT4=
EXTT5=
EXTT6=
EXTT7=
EXTT8=
PLAYORDER=
